<svg xmlns="http://www.w3.org/2000/svg" width="432" height="432" viewBox="0 0 432 432">
  <defs>
    <linearGradient id="blade" x1="216" y1="62" x2="216" y2="334" gradientUnits="userSpaceOnUse">
      <stop offset="0" stop-color="#fff6cf"/>
      <stop offset="0.34" stop-color="#f4dd8d"/>
      <stop offset="0.76" stop-color="#d3a43e"/>
      <stop offset="1" stop-color="#855719"/>
    </linearGradient>
    <linearGradient id="guard" x1="150" y1="238" x2="282" y2="238" gradientUnits="userSpaceOnUse">
      <stop offset="0" stop-color="#ab721f"/>
      <stop offset="0.5" stop-color="#efc868"/>
      <stop offset="1" stop-color="#9c6518"/>
    </linearGradient>
    <filter id="shadow" x="-20%" y="-20%" width="140%" height="140%">
      <feDropShadow dx="0" dy="12" stdDeviation="12" flood-color="#000000" flood-opacity="0.32"/>
    </filter>
  </defs>

  <g filter="url(#shadow)">
    <path d="M216 62 L239 107 L232 229 L216 334 L200 229 L193 107 Z" fill="url(#blade)"/>
    <path d="M202 100 L216 77 L230 100 L224 224 L216 286 L208 224 Z" fill="#fffbe8" fill-opacity="0.58"/>
    <path d="M150 231 Q216 209 282 231 L272 248 Q216 239 160 248 Z" fill="url(#guard)"/>
    <rect x="204" y="246" width="24" height="72" rx="10" fill="#5a2d15"/>
    <circle cx="216" cy="241" r="11" fill="#f1ca6a"/>
    <path d="M216 315 C235 332 246 353 241 376 C231 363 220 351 204 340 Z" fill="#b0252c"/>
    <path d="M206 324 C188 338 178 357 181 377 C192 365 204 355 219 347 Z" fill="#df4b50"/>
  </g>

  <path d="M133 150 C163 109 191 92 216 92 C241 92 269 109 299 150" fill="none" stroke="#f3e5aa" stroke-opacity="0.5" stroke-width="8" stroke-linecap="round"/>
</svg>
