<svg width="128" height="128" viewBox="0 0 128 128" fill="none" xmlns="http://www.w3.org/2000/svg">
  <path
    d="M34 106C22 96 15 80 15 63C15 34 37 12 66 12C94 12 116 33 117 61C118 75 114 89 105 100C95 112 82 118 68 118"
    stroke="white"
    stroke-width="15"
    stroke-linecap="round"
    stroke-linejoin="round"
  />
  <path
    d="M39 102C29 93 24 79 24 64C24 40 41 21 65 21C89 21 107 39 108 62C109 75 104 87 96 96C87 106 77 111 67 111"
    stroke="white"
    stroke-width="7"
    stroke-linecap="round"
    stroke-linejoin="round"
    opacity="0.42"
  />
  <path
    d="M29 102C24 98 20 93 18 87"
    stroke="white"
    stroke-width="10"
    stroke-linecap="round"
    opacity="0.8"
  />
  <path
    d="M33 108C30 106 27 104 24 101"
    stroke="white"
    stroke-width="6"
    stroke-linecap="round"
    opacity="0.55"
  />
  <path
    d="M112 55C114 61 115 68 114 74"
    stroke="white"
    stroke-width="5"
    stroke-linecap="round"
    opacity="0.45"
  />
  <ellipse cx="66" cy="12" rx="7" ry="5" fill="white" opacity="0.72"/>
  <ellipse cx="17" cy="64" rx="4" ry="5" fill="white" opacity="0.38"/>
  <ellipse cx="103" cy="102" rx="5" ry="4" fill="white" opacity="0.32"/>
</svg>
